# xmcd
#
# Track frame offsets:
#	150
#	16541
#	35926
#	52318
#	69039
#
# Disc length: 1176
#
# Revision: 2
# Processed by: cddbd v1.5.1PL0 Copyright (c) Steve Scherf et al.
# Submitted via: dBpowerAMP V4.0
# Normalized: r1:TRMNUM
#
DISCID=3b049605
DTITLE=Playgound - Playgound Singing in the playground
DYEAR=2003
DGENRE=Pop
TTITLE0=ไม่มีความหมาย (Feat. วิน ศิริวงศ์)
TTITLE1=ทอมบอย (Feat. บุรินทร์ บุญวิสุทธิ์)
TTITLE2=ไม่มีความหมาย (Accoustic)
TTITLE3=ไม่มีความหมาย (Music)
TTITLE4=ทอมบอย (Music)
EXTD=
EXTT0=
EXTT1=
EXTT2=
EXTT3=
EXTT4=
PLAYORDER=
